<?xml version="1.0" standalone="no"?>
<!DOCTYPE svg PUBLIC "-//W3C//DTD SVG 20010904//EN"
 "http://www.w3.org/TR/2001/REC-SVG-20010904/DTD/svg10.dtd">
<svg version="1.0" xmlns="http://www.w3.org/2000/svg"
 width="244.000000pt" height="14.000000pt" viewBox="0 0 244.000000 14.000000"
 preserveAspectRatio="xMidYMid meet">

<g transform="translate(0.000000,14.000000) scale(0.100000,-0.100000)"
fill="#000000" stroke="none">
<path d="M7 123 c-4 -3 -7 -30 -7 -60 0 -40 4 -53 15 -53 9 0 15 9 15 25 0 20
5 25 25 25 20 0 25 -5 25 -25 0 -16 6 -25 15 -25 12 0 15 13 15 60 0 47 -3 60
-15 60 -9 0 -15 -10 -15 -26 0 -21 -4 -25 -22 -22 -15 2 -24 11 -26 26 -3 22
-13 28 -25 15z"/>
<path d="M172 118 c-14 -18 -37 -97 -30 -104 4 -3 15 0 26 7 17 11 25 11 46
-1 14 -7 28 -11 31 -8 3 3 -4 31 -15 62 -21 55 -38 68 -58 44z m24 -65 c-11
-11 -19 6 -11 24 8 17 8 17 12 0 3 -10 2 -21 -1 -24z"/>
<path d="M277 123 c-4 -3 -7 -30 -7 -60 0 -38 4 -53 14 -53 7 0 16 9 19 20 3
12 14 20 26 20 17 0 41 25 41 44 0 25 -74 49 -93 29z m56 -38 c1 -5 -6 -11
-15 -13 -11 -2 -18 3 -18 13 0 17 30 18 33 0z"/>
<path d="M397 123 c-4 -3 -7 -30 -7 -60 0 -38 4 -53 14 -53 7 0 16 9 19 20 3
12 14 20 26 20 17 0 41 25 41 44 0 25 -74 49 -93 29z m56 -38 c1 -5 -6 -11
-15 -13 -11 -2 -18 3 -18 13 0 17 30 18 33 0z"/>
<path d="M510 117 c0 -7 7 -22 15 -33 8 -10 15 -31 15 -46 0 -18 5 -28 15 -28
9 0 15 10 15 26 0 14 9 37 20 52 15 18 18 28 10 36 -8 8 -16 5 -28 -12 -17
-22 -17 -22 -30 -2 -14 23 -32 27 -32 7z"/>
<path d="M724 122 c-26 -17 -35 -51 -22 -80 11 -23 20 -27 53 -27 33 0 42 4
53 27 20 42 -8 88 -53 88 -11 0 -25 -4 -31 -8z m59 -41 c6 -23 -10 -51 -28
-51 -18 0 -34 30 -27 50 11 33 46 33 55 1z"/>
<path d="M844 116 c-9 -24 1 -99 14 -104 7 -2 12 5 12 19 l0 22 23 -21 c24
-23 47 -29 47 -13 0 5 -7 14 -15 21 -13 11 -13 14 0 27 19 18 19 28 -1 47 -19
20 -73 21 -80 2z m56 -26 c0 -5 -7 -10 -15 -10 -8 0 -15 5 -15 10 0 6 7 10 15
10 8 0 15 -4 15 -10z"/>
<path d="M970 70 l0 -60 33 0 c46 0 70 20 70 60 0 40 -24 60 -70 60 l-33 0 0
-60z m70 11 c7 -15 6 -23 -6 -35 -24 -25 -34 -19 -34 19 0 39 22 48 40 16z"/>
<path d="M1104 116 c-3 -7 -4 -33 -2 -57 3 -40 6 -44 32 -47 16 -2 33 1 39 7
8 8 5 11 -10 11 -30 0 -40 20 -14 27 27 7 27 23 1 23 -11 0 -20 5 -20 10 0 6
9 10 20 10 11 0 20 7 20 15 0 19 -59 20 -66 1z"/>
<path d="M1204 116 c-9 -24 1 -99 14 -104 7 -2 12 5 12 19 l0 22 23 -21 c24
-23 47 -29 47 -13 0 5 -7 14 -15 21 -13 11 -13 14 0 27 19 18 19 28 -1 47 -19
20 -73 21 -80 2z m56 -26 c0 -5 -7 -10 -15 -10 -8 0 -15 5 -15 10 0 6 7 10 15
10 8 0 15 -4 15 -10z"/>
<path d="M1417 124 c-4 -4 -7 -16 -7 -26 0 -10 -5 -27 -12 -37 -19 -31 5 -51
58 -49 42 1 44 3 44 31 0 21 -4 28 -14 24 -10 -4 -13 3 -12 26 1 27 -3 32 -24
35 -14 2 -29 0 -33 -4z m30 -90 c-9 -9 -28 6 -21 18 4 6 10 6 17 -1 6 -6 8
-13 4 -17z"/>
<path d="M1600 70 l0 -60 39 0 c42 0 71 26 71 62 0 30 -37 58 -75 58 l-35 0 0
-60z m70 26 c0 -2 3 -11 6 -19 5 -15 -20 -47 -37 -47 -5 0 -9 16 -9 35 0 28 4
35 20 35 11 0 20 -2 20 -4z"/>
<path d="M1734 117 c-3 -8 -4 -34 -2 -58 3 -43 4 -44 41 -47 21 -2 37 1 37 7
0 6 -9 11 -19 11 -28 0 -37 20 -12 27 27 7 27 19 -1 28 l-23 7 23 6 c35 10 31
27 -6 30 -21 2 -34 -2 -38 -11z"/>
<path d="M1840 71 l0 -61 35 0 c19 0 35 5 35 10 0 6 -9 10 -19 10 -17 0 -20 8
-23 47 -5 73 -28 68 -28 -6z"/>
<path d="M1940 71 c0 -48 3 -61 15 -61 13 0 15 11 13 57 -4 81 -28 85 -28 4z"/>
<path d="M1995 120 c-8 -13 35 -110 49 -110 14 0 58 99 50 111 -11 18 -23 8
-35 -28 l-12 -37 -19 37 c-20 39 -23 42 -33 27z"/>
<path d="M2124 116 c-3 -7 -4 -33 -2 -57 3 -40 6 -44 32 -47 16 -2 33 1 39 7
8 8 5 11 -10 11 -30 0 -40 20 -14 27 27 7 27 23 1 23 -11 0 -20 5 -20 10 0 6
9 10 20 10 11 0 20 7 20 15 0 19 -59 20 -66 1z"/>
<path d="M2224 116 c-9 -24 1 -99 14 -104 7 -2 12 5 12 19 l0 22 23 -21 c24
-23 47 -29 47 -13 0 5 -7 14 -15 21 -13 11 -13 14 0 27 19 18 19 28 -1 47 -19
20 -73 21 -80 2z m56 -26 c0 -5 -7 -10 -15 -10 -8 0 -15 5 -15 10 0 6 7 10 15
10 8 0 15 -4 15 -10z"/>
<path d="M2340 117 c0 -7 5 -18 11 -24 6 -6 14 -26 18 -44 8 -39 31 -51 31
-16 0 13 9 36 21 51 25 32 16 55 -12 30 -18 -16 -20 -16 -37 -1 -22 20 -32 21
-32 4z"/>
</g>
</svg>
